<mxfile host="app.diagrams.net" agent="Mozilla/5.0 (Windows NT 10.0; Win64; x64) AppleWebKit/537.36 (KHTML, like Gecko) Chrome/134.0.0.0 Safari/537.36" version="26.1.1">
  <diagram name="Page-1" id="2YBvvXClWsGukQMizWep">
    <mxGraphModel dx="2574" dy="1153" grid="1" gridSize="10" guides="1" tooltips="1" connect="1" arrows="1" fold="1" page="1" pageScale="1" pageWidth="850" pageHeight="1100" math="0" shadow="0">
      <root>
        <mxCell id="0" />
        <mxCell id="1" parent="0" />
        <mxCell id="aM9ryv3xv72pqoxQDRHE-1" value=":LoteMateriaPrima" style="shape=umlLifeline;perimeter=lifelinePerimeter;whiteSpace=wrap;html=1;container=0;dropTarget=0;collapsible=0;recursiveResize=0;outlineConnect=0;portConstraint=eastwest;newEdgeStyle={&quot;edgeStyle&quot;:&quot;elbowEdgeStyle&quot;,&quot;elbow&quot;:&quot;vertical&quot;,&quot;curved&quot;:0,&quot;rounded&quot;:0};" parent="1" vertex="1">
          <mxGeometry x="80" y="50" width="100" height="680" as="geometry" />
        </mxCell>
        <mxCell id="aM9ryv3xv72pqoxQDRHE-2" value="" style="html=1;points=[];perimeter=orthogonalPerimeter;outlineConnect=0;targetShapes=umlLifeline;portConstraint=eastwest;newEdgeStyle={&quot;edgeStyle&quot;:&quot;elbowEdgeStyle&quot;,&quot;elbow&quot;:&quot;vertical&quot;,&quot;curved&quot;:0,&quot;rounded&quot;:0};" parent="aM9ryv3xv72pqoxQDRHE-1" vertex="1">
          <mxGeometry x="45" y="70" width="10" height="550" as="geometry" />
        </mxCell>
        <mxCell id="aM9ryv3xv72pqoxQDRHE-3" value="LoteMateriaPrima()" style="html=1;verticalAlign=bottom;startArrow=oval;endArrow=block;startSize=8;edgeStyle=elbowEdgeStyle;elbow=vertical;curved=0;rounded=0;" parent="aM9ryv3xv72pqoxQDRHE-1" target="aM9ryv3xv72pqoxQDRHE-2" edge="1">
          <mxGeometry x="-1" y="5" relative="1" as="geometry">
            <mxPoint x="-15" y="70" as="sourcePoint" />
            <mxPoint x="-5" y="5" as="offset" />
          </mxGeometry>
        </mxCell>
        <mxCell id="aM9ryv3xv72pqoxQDRHE-5" value=":Ingresado" style="shape=umlLifeline;perimeter=lifelinePerimeter;whiteSpace=wrap;html=1;container=0;dropTarget=0;collapsible=0;recursiveResize=0;outlineConnect=0;portConstraint=eastwest;newEdgeStyle={&quot;edgeStyle&quot;:&quot;elbowEdgeStyle&quot;,&quot;elbow&quot;:&quot;vertical&quot;,&quot;curved&quot;:0,&quot;rounded&quot;:0};" parent="1" vertex="1">
          <mxGeometry x="260" y="50" width="100" height="680" as="geometry" />
        </mxCell>
        <mxCell id="aM9ryv3xv72pqoxQDRHE-6" value="" style="html=1;points=[];perimeter=orthogonalPerimeter;outlineConnect=0;targetShapes=umlLifeline;portConstraint=eastwest;newEdgeStyle={&quot;edgeStyle&quot;:&quot;elbowEdgeStyle&quot;,&quot;elbow&quot;:&quot;vertical&quot;,&quot;curved&quot;:0,&quot;rounded&quot;:0};" parent="aM9ryv3xv72pqoxQDRHE-5" vertex="1">
          <mxGeometry x="45" y="80" width="10" height="130" as="geometry" />
        </mxCell>
        <mxCell id="aM9ryv3xv72pqoxQDRHE-7" value="finalizaRegistroImagenes()" style="html=1;verticalAlign=bottom;endArrow=block;edgeStyle=elbowEdgeStyle;elbow=vertical;curved=0;rounded=0;" parent="1" edge="1">
          <mxGeometry x="-0.002" relative="1" as="geometry">
            <mxPoint x="140" y="190" as="sourcePoint" />
            <Array as="points">
              <mxPoint x="225" y="190" />
            </Array>
            <mxPoint x="310" y="190" as="targetPoint" />
            <mxPoint as="offset" />
          </mxGeometry>
        </mxCell>
        <mxCell id="aM9ryv3xv72pqoxQDRHE-8" value="return" style="html=1;verticalAlign=bottom;endArrow=open;dashed=1;endSize=8;edgeStyle=elbowEdgeStyle;elbow=vertical;curved=0;rounded=0;" parent="1" source="_TkNcj0-YgPWnxvyWZk9-20" edge="1">
          <mxGeometry relative="1" as="geometry">
            <mxPoint x="660" y="589.9999999999999" as="targetPoint" />
            <Array as="points">
              <mxPoint x="755" y="590" />
            </Array>
            <mxPoint x="830" y="589.9999999999999" as="sourcePoint" />
          </mxGeometry>
        </mxCell>
        <mxCell id="_TkNcj0-YgPWnxvyWZk9-1" value="setEstado(Ingresado(self))" style="html=1;verticalAlign=bottom;endArrow=block;edgeStyle=elbowEdgeStyle;elbow=vertical;curved=0;rounded=0;" parent="1" target="aM9ryv3xv72pqoxQDRHE-6" edge="1">
          <mxGeometry relative="1" as="geometry">
            <mxPoint x="140" y="130" as="sourcePoint" />
            <Array as="points">
              <mxPoint x="225" y="130" />
            </Array>
            <mxPoint x="300" y="130" as="targetPoint" />
            <mxPoint as="offset" />
          </mxGeometry>
        </mxCell>
        <mxCell id="_TkNcj0-YgPWnxvyWZk9-3" value="nuevoLoteMateriaPrima(lote_mp)" style="html=1;verticalAlign=bottom;endArrow=block;edgeStyle=elbowEdgeStyle;elbow=vertical;curved=0;rounded=0;" parent="1" target="_TkNcj0-YgPWnxvyWZk9-20" edge="1">
          <mxGeometry x="-0.002" relative="1" as="geometry">
            <mxPoint x="660" y="550" as="sourcePoint" />
            <Array as="points">
              <mxPoint x="745" y="550" />
            </Array>
            <mxPoint x="830" y="550" as="targetPoint" />
            <mxPoint as="offset" />
          </mxGeometry>
        </mxCell>
        <mxCell id="_TkNcj0-YgPWnxvyWZk9-4" value="setEstado(EnAnalisis(self))" style="html=1;verticalAlign=bottom;endArrow=open;dashed=1;endSize=8;edgeStyle=elbowEdgeStyle;elbow=vertical;curved=0;rounded=0;" parent="1" edge="1">
          <mxGeometry relative="1" as="geometry">
            <mxPoint x="130" y="249.9999999999999" as="targetPoint" />
            <Array as="points">
              <mxPoint x="225" y="250" />
            </Array>
            <mxPoint x="300" y="249.9999999999999" as="sourcePoint" />
          </mxGeometry>
        </mxCell>
        <mxCell id="_TkNcj0-YgPWnxvyWZk9-5" value=":EnAnalisis" style="shape=umlLifeline;perimeter=lifelinePerimeter;whiteSpace=wrap;html=1;container=0;dropTarget=0;collapsible=0;recursiveResize=0;outlineConnect=0;portConstraint=eastwest;newEdgeStyle={&quot;edgeStyle&quot;:&quot;elbowEdgeStyle&quot;,&quot;elbow&quot;:&quot;vertical&quot;,&quot;curved&quot;:0,&quot;rounded&quot;:0};" parent="1" vertex="1">
          <mxGeometry x="440" y="50" width="100" height="680" as="geometry" />
        </mxCell>
        <mxCell id="_TkNcj0-YgPWnxvyWZk9-6" value="" style="html=1;points=[];perimeter=orthogonalPerimeter;outlineConnect=0;targetShapes=umlLifeline;portConstraint=eastwest;newEdgeStyle={&quot;edgeStyle&quot;:&quot;elbowEdgeStyle&quot;,&quot;elbow&quot;:&quot;vertical&quot;,&quot;curved&quot;:0,&quot;rounded&quot;:0};" parent="_TkNcj0-YgPWnxvyWZk9-5" vertex="1">
          <mxGeometry x="45" y="240" width="10" height="140" as="geometry" />
        </mxCell>
        <mxCell id="_TkNcj0-YgPWnxvyWZk9-7" value="registrarEstado()" style="html=1;verticalAlign=bottom;endArrow=open;dashed=1;endSize=8;edgeStyle=elbowEdgeStyle;elbow=vertical;curved=0;rounded=0;" parent="1" edge="1">
          <mxGeometry relative="1" as="geometry">
            <mxPoint x="130" y="219.9999999999999" as="targetPoint" />
            <Array as="points">
              <mxPoint x="225" y="220" />
            </Array>
            <mxPoint x="300" y="219.9999999999999" as="sourcePoint" />
          </mxGeometry>
        </mxCell>
        <mxCell id="_TkNcj0-YgPWnxvyWZk9-8" value="setEstado(EnAnalisis(self))" style="html=1;verticalAlign=bottom;endArrow=block;edgeStyle=elbowEdgeStyle;elbow=vertical;curved=0;rounded=0;" parent="1" target="_TkNcj0-YgPWnxvyWZk9-5" edge="1">
          <mxGeometry x="0.2017" relative="1" as="geometry">
            <mxPoint x="140" y="290" as="sourcePoint" />
            <Array as="points">
              <mxPoint x="225" y="290" />
            </Array>
            <mxPoint x="310" y="290" as="targetPoint" />
            <mxPoint as="offset" />
          </mxGeometry>
        </mxCell>
        <mxCell id="_TkNcj0-YgPWnxvyWZk9-9" value="..." style="text;html=1;align=center;verticalAlign=middle;resizable=0;points=[];autosize=1;strokeColor=none;fillColor=none;" parent="1" vertex="1">
          <mxGeometry x="205" y="138" width="30" height="30" as="geometry" />
        </mxCell>
        <mxCell id="_TkNcj0-YgPWnxvyWZk9-10" value="finalizaRegistroResultados()" style="html=1;verticalAlign=bottom;endArrow=block;edgeStyle=elbowEdgeStyle;elbow=vertical;curved=0;rounded=0;" parent="1" target="_TkNcj0-YgPWnxvyWZk9-6" edge="1">
          <mxGeometry x="0.2017" relative="1" as="geometry">
            <mxPoint x="135" y="350" as="sourcePoint" />
            <Array as="points">
              <mxPoint x="220" y="350" />
            </Array>
            <mxPoint x="485" y="350" as="targetPoint" />
            <mxPoint as="offset" />
          </mxGeometry>
        </mxCell>
        <mxCell id="_TkNcj0-YgPWnxvyWZk9-11" value="..." style="text;html=1;align=center;verticalAlign=middle;resizable=0;points=[];autosize=1;strokeColor=none;fillColor=none;" parent="1" vertex="1">
          <mxGeometry x="205" y="300" width="30" height="30" as="geometry" />
        </mxCell>
        <mxCell id="_TkNcj0-YgPWnxvyWZk9-13" value="registrarEstado()" style="html=1;verticalAlign=bottom;endArrow=open;dashed=1;endSize=8;edgeStyle=elbowEdgeStyle;elbow=vertical;curved=0;rounded=0;" parent="1" target="aM9ryv3xv72pqoxQDRHE-1" edge="1">
          <mxGeometry relative="1" as="geometry">
            <mxPoint x="310" y="379.9999999999999" as="targetPoint" />
            <Array as="points">
              <mxPoint x="405" y="380" />
            </Array>
            <mxPoint x="480" y="379.9999999999999" as="sourcePoint" />
          </mxGeometry>
        </mxCell>
        <mxCell id="_TkNcj0-YgPWnxvyWZk9-14" value="setEstado(Analizado())" style="html=1;verticalAlign=bottom;endArrow=open;dashed=1;endSize=8;edgeStyle=elbowEdgeStyle;elbow=vertical;curved=0;rounded=0;" parent="1" edge="1">
          <mxGeometry relative="1" as="geometry">
            <mxPoint x="130" y="410" as="targetPoint" />
            <Array as="points">
              <mxPoint x="405" y="410" />
            </Array>
            <mxPoint x="480" y="409.9999999999999" as="sourcePoint" />
          </mxGeometry>
        </mxCell>
        <mxCell id="_TkNcj0-YgPWnxvyWZk9-15" value=":Analizado" style="shape=umlLifeline;perimeter=lifelinePerimeter;whiteSpace=wrap;html=1;container=0;dropTarget=0;collapsible=0;recursiveResize=0;outlineConnect=0;portConstraint=eastwest;newEdgeStyle={&quot;edgeStyle&quot;:&quot;elbowEdgeStyle&quot;,&quot;elbow&quot;:&quot;vertical&quot;,&quot;curved&quot;:0,&quot;rounded&quot;:0};" parent="1" vertex="1">
          <mxGeometry x="610" y="50" width="100" height="680" as="geometry" />
        </mxCell>
        <mxCell id="_TkNcj0-YgPWnxvyWZk9-16" value="" style="html=1;points=[];perimeter=orthogonalPerimeter;outlineConnect=0;targetShapes=umlLifeline;portConstraint=eastwest;newEdgeStyle={&quot;edgeStyle&quot;:&quot;elbowEdgeStyle&quot;,&quot;elbow&quot;:&quot;vertical&quot;,&quot;curved&quot;:0,&quot;rounded&quot;:0};" parent="_TkNcj0-YgPWnxvyWZk9-15" vertex="1">
          <mxGeometry x="45" y="410" width="10" height="210" as="geometry" />
        </mxCell>
        <mxCell id="_TkNcj0-YgPWnxvyWZk9-17" value="setEstado(Analizado(self))" style="html=1;verticalAlign=bottom;endArrow=block;edgeStyle=elbowEdgeStyle;elbow=vertical;curved=0;rounded=0;" parent="1" target="_TkNcj0-YgPWnxvyWZk9-15" edge="1">
          <mxGeometry x="0.0867" relative="1" as="geometry">
            <mxPoint x="135" y="460" as="sourcePoint" />
            <Array as="points">
              <mxPoint x="220" y="460" />
            </Array>
            <mxPoint x="485" y="460" as="targetPoint" />
            <mxPoint as="offset" />
          </mxGeometry>
        </mxCell>
        <mxCell id="_TkNcj0-YgPWnxvyWZk9-18" value="...&lt;div&gt;&lt;br&gt;&lt;/div&gt;" style="text;html=1;align=center;verticalAlign=middle;resizable=0;points=[];autosize=1;strokeColor=none;fillColor=none;" parent="1" vertex="1">
          <mxGeometry x="205" y="473" width="30" height="40" as="geometry" />
        </mxCell>
        <mxCell id="_TkNcj0-YgPWnxvyWZk9-19" value="asignarAloteProduccion(lote_produccion)" style="html=1;verticalAlign=bottom;endArrow=block;edgeStyle=elbowEdgeStyle;elbow=vertical;curved=0;rounded=0;" parent="1" target="_TkNcj0-YgPWnxvyWZk9-15" edge="1">
          <mxGeometry x="0.0867" relative="1" as="geometry">
            <mxPoint x="140" y="530" as="sourcePoint" />
            <Array as="points">
              <mxPoint x="225" y="530" />
            </Array>
            <mxPoint x="665" y="530" as="targetPoint" />
            <mxPoint as="offset" />
          </mxGeometry>
        </mxCell>
        <mxCell id="_TkNcj0-YgPWnxvyWZk9-20" value=":LoteProduccion" style="shape=umlLifeline;perimeter=lifelinePerimeter;whiteSpace=wrap;html=1;container=0;dropTarget=0;collapsible=0;recursiveResize=0;outlineConnect=0;portConstraint=eastwest;newEdgeStyle={&quot;edgeStyle&quot;:&quot;elbowEdgeStyle&quot;,&quot;elbow&quot;:&quot;vertical&quot;,&quot;curved&quot;:0,&quot;rounded&quot;:0};" parent="1" vertex="1">
          <mxGeometry x="800" y="50" width="100" height="680" as="geometry" />
        </mxCell>
        <mxCell id="_TkNcj0-YgPWnxvyWZk9-21" value="" style="html=1;points=[];perimeter=orthogonalPerimeter;outlineConnect=0;targetShapes=umlLifeline;portConstraint=eastwest;newEdgeStyle={&quot;edgeStyle&quot;:&quot;elbowEdgeStyle&quot;,&quot;elbow&quot;:&quot;vertical&quot;,&quot;curved&quot;:0,&quot;rounded&quot;:0};" parent="_TkNcj0-YgPWnxvyWZk9-20" vertex="1">
          <mxGeometry x="45" y="500" width="10" height="50" as="geometry" />
        </mxCell>
        <mxCell id="_TkNcj0-YgPWnxvyWZk9-22" value="registrarEstado()" style="html=1;verticalAlign=bottom;endArrow=open;dashed=1;endSize=8;edgeStyle=elbowEdgeStyle;elbow=vertical;curved=0;rounded=0;" parent="1" target="aM9ryv3xv72pqoxQDRHE-1" edge="1">
          <mxGeometry relative="1" as="geometry">
            <mxPoint x="300" y="620" as="targetPoint" />
            <Array as="points">
              <mxPoint x="575" y="620" />
            </Array>
            <mxPoint x="650" y="619.9999999999999" as="sourcePoint" />
          </mxGeometry>
        </mxCell>
        <mxCell id="_TkNcj0-YgPWnxvyWZk9-23" value="setEstado(EnProduccion())" style="html=1;verticalAlign=bottom;endArrow=open;dashed=1;endSize=8;edgeStyle=elbowEdgeStyle;elbow=vertical;curved=0;rounded=0;" parent="1" edge="1">
          <mxGeometry relative="1" as="geometry">
            <mxPoint x="130" y="650" as="targetPoint" />
            <Array as="points">
              <mxPoint x="575" y="650" />
            </Array>
            <mxPoint x="650" y="649.9999999999999" as="sourcePoint" />
          </mxGeometry>
        </mxCell>
        <mxCell id="_TkNcj0-YgPWnxvyWZk9-24" value="...&lt;div&gt;&lt;br&gt;&lt;/div&gt;" style="text;html=1;align=center;verticalAlign=middle;resizable=0;points=[];autosize=1;strokeColor=none;fillColor=none;" parent="1" vertex="1">
          <mxGeometry x="205" y="670" width="30" height="40" as="geometry" />
        </mxCell>
      </root>
    </mxGraphModel>
  </diagram>
</mxfile>
